# xmcd
#
# Track frame offsets:
#  150
#  14366
#  28285
#  41418
#  57253
#  68886
#  91580
#  107327
#  122384
#  140429
#  151480
#  161537
#  176212
#  187665
#  197440
#  208915
#  221183
#  237503
#  252629
#  271249
#  291014
#  312454
#
# Disc length: 4388 seconds
#
# Revision: 0
# Processed by: cddbd v1.5.1PL0 Copyright (c) Steve Scherf et al.
# Submitted via: Collectorz.com Music Collector 6.9
#
DISCID=3e112216
DTITLE=Various Artist - Honky Tonk 12
DYEAR=1900
DGENRE=
TTITLE0=Mavericks - Oh What a Thrill
TTITLE1=Mavericks - I Don't Care (If You Love Me Anymore)
TTITLE2=Mavericks - Something Stupid
TTITLE3=Mavericks - All That Heaven Will Allow
TTITLE4=Mavericks - Hey Good Lookin'
TTITLE5=Mavericks - Children
TTITLE6=Mavericks - The Things You Said To Me
TTITLE7=Mavericks - Mr Jones
TTITLE8=Mavericks - Blue Moon
TTITLE9=Bastard Sons of Johnny Cash - Truckstop in La Grange
TTITLE10=Shaver - Love Is So Sweet
TTITLE11=Shaver - Evergreen Fields
TTITLE12=Shaver - Hard Headed Heart
TTITLE13=Shaver - New York City Girl
TTITLE14=Shaver - I Don't Seem To Fin Anywhere
TTITLE15=Daylon Wear - Mornin' Glory
TTITLE16=Daylon Wear - Love And Then Some
TTITLE17=Daylon Wear - Fast Enough
TTITLE18=Jim white - Handcuffed To a Fence in Mississippi
TTITLE19=Jim white - The Wound That Never Heals
TTITLE20=Jim white - Ten Mile To Go on a Nine Mile Road
TTITLE21=Teddy Morgan and the Pistolas - Jult Like Tom Thumb's Blues
EXTD=
EXTT0=
EXTT1=
EXTT2=
EXTT3=
EXTT4=
EXTT5=
EXTT6=
EXTT7=
EXTT8=
EXTT9=
EXTT10=
EXTT11=
EXTT12=
EXTT13=
EXTT14=
EXTT15=
EXTT16=
EXTT17=
EXTT18=
EXTT19=
EXTT20=
EXTT21=
PLAYORDER=
